<?xml version="1.0" encoding="utf-8"?><!-- Uploaded to: SVG Repo, www.svgrepo.com, Generator: SVG Repo Mixer Tools -->
<svg width="800px" height="800px" viewBox="-0.5 0 25 25" fill="none" xmlns="http://www.w3.org/2000/svg">
<path d="M14.665 9.605H2.995C2.715 9.605 2.495 9.825 2.495 10.105V15.265C2.495 15.545 2.715 15.765 2.995 15.765H4.495V18.505L7.16501 15.765H14.665C14.945 15.765 15.165 15.545 15.165 15.265V10.105C15.165 9.825 14.935 9.605 14.665 9.605Z" stroke="#0F0F0F" stroke-miterlimit="10" stroke-linecap="round" stroke-linejoin="round"/>
<path d="M15.175 12.655H15.165" stroke="#0F0F0F" stroke-miterlimit="10" stroke-linecap="round" stroke-linejoin="round"/>
<path d="M8.83496 7.575V6.995C8.83496 6.715 9.05496 6.495 9.33496 6.495H21.005C21.275 6.495 21.505 6.715 21.505 6.995V12.325C21.505 12.505 21.365 12.655 21.185 12.655H19.505" stroke="#0F0F0F" stroke-miterlimit="10" stroke-linecap="round" stroke-linejoin="round"/>
<path d="M8.83496 9.605V9.575" stroke="#0F0F0F" stroke-miterlimit="10" stroke-linecap="round" stroke-linejoin="round"/>
<path d="M19.505 12.655V15.385L16.835 12.655" stroke="#0F0F0F" stroke-miterlimit="10" stroke-linecap="round" stroke-linejoin="round"/>
</svg>